<?xml version="1.0" encoding="UTF-8" standalone="no"?>
<!-- Created with Inkscape (http://www.inkscape.org/) -->

<svg
   width="750.73816"
   height="1472.0892"
   viewBox="0 0 750.73816 1472.0893"
   version="1.1"
   id="svg1"
   xml:space="preserve"
   xmlns="http://www.w3.org/2000/svg"
   xmlns:svg="http://www.w3.org/2000/svg"><defs
     id="defs1" /><g
     id="layer1"
     style="display:inline"
     transform="matrix(1.5,0,0,1.5,-503.85436,-43.032979)"><path
       style="display:inline;fill:#5a6f9a;fill-opacity:1;stroke:#5a6f9a;stroke-width:1;stroke-linecap:round;stroke-linejoin:round;stroke-dasharray:none;stroke-opacity:1;paint-order:markers stroke fill"
       d="m 795.97835,548.4046 c 0.8596,-66.49875 0.5756,-154.14464 1.63495,-235.83395 1.0328,-79.64171 2.42775,-122.35472 1.7744,-163.16036 -0.4515,-28.18772 -7.06785,-71.022621 -19.88415,-84.722821 -25.6326,-27.40038 -89.8953,-32.724885 -126.15785,-33.921485 -18.19775,-0.60049 -30.0719,-2.45328 -70.12415,-1.084565 -40.0522,1.368715 -113.75125,6.740185 -129.66115,9.338215 -32.1699,5.25324 -68.5421,13.738045 -76.4781,52.823145 -8.21385,40.453371 -6.4729,160.487361 -6.4729,179.132901 0,9.55698 1.0054,173.15642 3.42505,334.92282 1.2706,84.9447 3.0802,98.5034 4.97695,191.22915 0.97,47.42045 1.43685,78.971 1.32075,107.261 -0.141,34.2979 -3.5668,80.90045 42.86835,89.05125 41.5425,7.2921 143.3193,21.3617 209.70135,13.9212 33.191,-3.7203 70.19925,-6.0194 102.6861,-11.6402 41.40645,-7.164 53.70125,-24.2156 53.97765,-61.7823 0.5493,-74.66415 4.6746,-251.0779 6.41275,-385.534 z"
       id="path1" /></g><g
     id="layer3"
     transform="translate(-500,-40.000002)"><path
       style="display:inline;fill:none;fill-opacity:0.498615;stroke:#000000;stroke-width:5;stroke-linejoin:round;stroke-miterlimit:10;stroke-dasharray:none;stroke-dashoffset:1;stroke-opacity:1;paint-order:stroke fill markers"
       d="m 1014.1964,56.220149 c 0,0 70.5713,183.970971 76.8213,390.220951"
       id="path23" /><path
       style="display:inline;fill:none;fill-opacity:0.498615;stroke:#000000;stroke-width:5;stroke-linejoin:round;stroke-miterlimit:10;stroke-dasharray:none;stroke-dashoffset:1;stroke-opacity:1;paint-order:stroke fill markers"
       d="m 1027.7365,92.534874 c 0,0 -18.2813,-7.656255 -39.21877,-8.593755"
       id="path24" /><path
       style="display:inline;fill:none;fill-opacity:0.498615;stroke:#000000;stroke-width:5;stroke-linejoin:round;stroke-miterlimit:10;stroke-dasharray:none;stroke-dashoffset:1;stroke-opacity:1;paint-order:stroke fill markers"
       d="m 1053.8302,683.31615 -8.75,546.24995"
       id="path27" /><path
       style="display:inline;fill:none;fill-opacity:0.498615;stroke:#000000;stroke-width:5;stroke-linejoin:round;stroke-miterlimit:10;stroke-dasharray:none;stroke-dashoffset:1;stroke-opacity:1;paint-order:stroke fill markers"
       d="m 706.33023,682.69115 15,544.99995"
       id="path28" /><path
       style="display:inline;fill:none;fill-opacity:0.498615;stroke:#000000;stroke-width:5;stroke-linejoin:round;stroke-miterlimit:10;stroke-dasharray:none;stroke-dashoffset:1;stroke-opacity:1;paint-order:stroke fill markers"
       d="m 691.95523,684.56615 13.125,543.12495"
       id="path29" /><path
       style="display:inline;fill:none;fill-opacity:0.498615;stroke:#000000;stroke-width:5;stroke-linecap:square;stroke-linejoin:round;stroke-miterlimit:10;stroke-dasharray:none;stroke-dashoffset:1;stroke-opacity:1;paint-order:stroke fill markers"
       d="m 592.21143,1406.2861 c 9.3357,2.5259 20.3708,-27.0894 29.8539,-52.468 9.83505,-26.3204 18.44775,-55.0013 32.63705,-87.3881 8.24935,-18.8289 22.31805,-39.9957 48.3926,-38.2279 27.6013,1.8713 53.1627,4.0931 79.7705,5.7452 25.3973,1.577 50.79415,3.4532 76.23495,3.9775 33.72975,0.6952 67.5035,0.447 101.2047,-1.1049 27.2402,-1.2545 74.00157,-6.3392 81.53827,-6.6291 11.4904,-0.4415 19.3597,-0.1905 29.1681,4.8613 12.6523,6.5162 15.9418,14.4413 22.0971,25.6327 7.292,13.2582 19.4454,52.5911 22.0971,59.6621 2.6516,7.071 24.1744,66.0047 25.3012,69.3849 1.4363,4.3089 5.8557,19.6663 15.5784,15.6889"
       id="path30" /><path
       style="display:inline;fill:none;fill-opacity:0.498615;stroke:#000000;stroke-width:5;stroke-linejoin:round;stroke-miterlimit:10;stroke-dasharray:none;stroke-dashoffset:1;stroke-opacity:1;paint-order:stroke fill markers"
       d="m 732.70823,56.597369 c 0,0 -70.9375,183.593751 -77.1875,389.843731"
       id="path31" /><path
       style="display:inline;fill:none;fill-opacity:0.498615;stroke:#000000;stroke-width:5;stroke-linejoin:round;stroke-miterlimit:10;stroke-dasharray:none;stroke-dashoffset:1;stroke-opacity:1;paint-order:stroke fill markers"
       d="m 719.05298,92.782649 c 0,0 23.03025,-8.52903 43.96775,-9.46653"
       id="path32" /><path
       style="fill:none;fill-opacity:0.498615;stroke:#000000;stroke-width:5;stroke-linejoin:round;stroke-miterlimit:10;stroke-dasharray:none;stroke-dashoffset:1;stroke-opacity:1;paint-order:stroke fill markers"
       d="m 1125.5913,118.70733 c 0,0 21.2132,119.32427 13.2583,361.06642"
       id="path25" /><path
       style="fill:none;fill-opacity:0.498615;stroke:#000000;stroke-width:5;stroke-linejoin:round;stroke-miterlimit:10;stroke-dasharray:none;stroke-dashoffset:1;stroke-opacity:1;paint-order:stroke fill markers"
       d="m 1038.8302,680.8161 -7.5,550"
       id="path26" /><path
       style="fill:none;fill-opacity:0.498615;stroke:#000000;stroke-width:5;stroke-linejoin:round;stroke-miterlimit:10;stroke-dasharray:none;stroke-dashoffset:1;stroke-opacity:1;paint-order:stroke fill markers"
       d="m 621.25963,117.45733 c 0,0 -21.5257,120.57427 -13.57075,362.31642"
       id="path33" /></g><g
     id="layer2"
     transform="translate(-500,-40.000002)"><path
       style="display:inline;fill:#5f5f5d;fill-opacity:1;stroke:#5f5f5d;stroke-width:1.5;stroke-linecap:round;stroke-linejoin:round;stroke-dasharray:none;stroke-opacity:1;paint-order:markers stroke fill"
       d="m 1195.2507,308.13685 c 0,0 -8.7836,-17.23574 -10.7724,-75.57204 -1.9887,-58.33631 -6.9606,-92.47631 -12.2638,-103.41437 -5.3033,-10.93806 -21.8762,-40.769126 -56.0162,-50.712806 -34.14,-9.943695 -57.0105,-16.904275 -96.1223,-19.55593 -39.11182,-2.651645 -42.09492,-1.65728 -42.09492,-1.65728 0,0 18.1895,14.600715 21.9163,21.944775 1.90312,3.750345 1.46312,8.153355 -27.2196,6.560475 -37.11275,-2.061045 -136.41915,-4.902165 -162.4136,-2.98311 -24.6935,1.82301 -47.0978,2.423805 -52.48385,2.74701 -6.66775,0.4002 -15.8981,-1.93227 -7.1145,-11.927265 9.7557,-11.101225 17.0062,-18.08203 17.0062,-18.08203 0,0 -21.04745,0.0828 -35.63155,2.0716 -14.58405,1.988735 -75.57205,9.61223 -98.77395,18.561555 -23.20195,8.949315 -49.387,18.89301 -58.99925,53.695916 -9.6122,34.80291 -12.3325,171.95718 -22.1105,176.92902 -0.0735,-6.9807 -0.04,-28.05696 0.70965,-53.605 0.7509,-25.54806 1.89575,-55.26974 3.8538,-77.15451 1.9846,-22.18136 3.1931,-39.1158 9.17915,-55.90769 5.73335,-16.0828 16.98415,-28.167761 28.8212,-37.239836 7.22925,-5.540625 18.41895,-11.49873 32.8468,-15.994075 15.7289,-4.900725 30.83475,-9.232305 51.4816,-11.916315 40.7965,-5.30338 62.42355,-5.73466 93.42925,-7.97566 29.4077,-2.12551 40.2934,-3.10789 86.46865,-5.01328 47.1911,-1.9473 98.31825,-0.12435 115.38825,1.035795 34.13997,2.320195 58.99917,3.31456 80.21237,6.4634 19.0331,2.825225 53.4927,12.11455 61.3195,14.91553 26.6379,9.532965 52.7329,26.5938 61.0281,49.243111 8.0593,22.00504 15.1628,52.38999 17.3452,90.04164 2.0096,34.66809 1.0104,104.50137 1.0104,104.50137 z"
       id="path2" /><path
       style="display:inline;fill:#e8eae9;fill-opacity:1;stroke:#e8eae9;stroke-width:1.5;stroke-linecap:round;stroke-linejoin:round;stroke-dasharray:none;stroke-opacity:1;paint-order:markers stroke fill"
       d="m 1018.9159,60.041804 10.9381,31.488355 c 0,0 46.8778,7.1681 68.7771,15.744181 16.4526,6.44301 32.9697,14.50988 45.962,26.406 3.6715,3.36173 17.4182,20.58879 27.7486,-2.6684 l -4.1047,-7.66198 c 0,0 -17.4015,-30.162526 -49.2213,-42.592141 -32.2778,-12.60852 -59.8279,-16.07563 -80.7096,-18.727275 -17.5947,-2.23425 -19.3902,-1.988725 -19.3902,-1.98874 z"
       id="path5" /><path
       style="display:inline;fill:#e8eae9;fill-opacity:1;stroke:#e8eae9;stroke-width:1.5;stroke-linecap:round;stroke-linejoin:round;stroke-dasharray:none;stroke-opacity:1;paint-order:markers stroke fill"
       d="m 728.33188,59.544624 -11.26955,31.8198 c 0,0 -51.68655,7.08867 -71.4288,15.412726 -19.7423,8.32405 -21.37895,7.95493 -46.23815,30.6597 -5.56215,5.08006 -13.2198,15.72741 -24.9865,-2.94462 7.0779,-29.70108 25.9728,-43.930621 52.33165,-54.320341 32.5294,-11.94441 59.82785,-15.4897 80.7096,-18.141345 17.5947,-2.23425 20.88175,-2.485915 20.88175,-2.48592 z"
       id="path6" /><path
       style="display:inline;fill:#5f5f5d;fill-opacity:1;stroke:#575956;stroke-width:1.5;stroke-linecap:round;stroke-linejoin:round;stroke-dasharray:none;stroke-opacity:1;paint-order:markers stroke fill"
       d="m 818.67443,673.15035 c 16.64065,-0.70305 77.57815,-1.32585 91.875,-0.3885 14.2969,0.9375 64.4278,1.1433 88.3037,3.86085 17.18507,1.95605 54.25777,9.03195 59.68397,10.2939 10.0782,2.34375 19.4532,7.2656 29.2969,-10.3125 9.8438,-17.57815 31.6406,-71.95315 35.3906,-81.09375 3.75,-9.14065 26.7647,-69.16435 28.6409,-74.01845 2.7523,-7.1207 2.0196,-17.8788 0.5291,-22.8652 -1.7209,-5.75685 -8.5901,-16.6887 -16.6157,-22.7565 -6.9551,-5.2584 -38.5699,-36.45365 -88.4918,-46.2974 -49.92182,-9.84375 -104.76557,-17.8125 -153.74997,-19.4531 -9.1475,-0.3065 -94.21875,2.8125 -105.23435,4.4531 -11.01565,1.64065 -87.65625,13.3594 -101.71875,17.8125 -14.0625,4.45315 -54.8377,20.13375 -79.9219,42.6563 -6.86825,6.16685 -15.8609,18.33755 -17.19045,30.05515 -0.94095,8.2931 1.8734,16.1839 7.29815,28.81805 4.8413,11.27515 22.21935,56.9237 34.59875,85.9681 7.7918,18.28095 14.7689,39.6127 24.40345,56.0416 6.68005,11.3909 12.6142,14.56935 33.2695,10.74595 27.87645,-5.16015 47.66,-6.8443 66.36015,-9.07145 18.92655,-2.2541 46.63215,-3.7457 63.27275,-4.4488 z"
       id="path7" /><path
       style="display:inline;fill:#e8eae9;fill-opacity:1;stroke:#ebebeb;stroke-width:1.5;stroke-linecap:round;stroke-linejoin:round;stroke-dasharray:none;stroke-opacity:1;paint-order:markers stroke fill"
       d="m 1134.4746,546.5261 c 4.1268,-8.69615 7.5947,-17.4678 11.4258,-24.96095 4.1333,-8.084 4.336,-21.91405 -5.9179,-28.35935 -16.8421,-10.58645 -35.1052,-24.02585 -60.0687,-30.9944 -32.2679,-9.00755 -58.3253,-13.4011 -91.32612,-19.17185 -20.1951,-3.53145 -54.1076,-5.8255 -74.57765,-6.9606 -40.82425,-2.2637 -78.3232,-1.1847 -117.33555,1.6573 -17.67295,1.28745 -35.2837,3.70385 -52.70155,6.9606 -23.9174,4.472 -47.81385,9.6458 -70.93165,17.2357 -12.516,4.1092 -24.70935,9.29275 -36.4602,15.247 -11.2737,5.7125 -17.7603,8.7035 -26.3508,13.5897 -8.58335,4.8821 -16.34155,11.87015 -13.9392,18.96 2.4023,7.0898 12.08665,32.1327 18.5156,48.04685 10.0875,24.97035 20.87425,49.6529 31.46485,74.41405 5.33915,12.4831 11.348,29.0262 16.17185,37.38285 4.2821,7.41805 7.17345,12.98425 28.73595,8.17955 21.5625,-4.8047 39.17,-7.06235 59.74895,-9.1892 22.6548,-2.34135 44.9868,-4.04955 67.3745,-5.0959 24.46925,-1.1436 49.6512,-1.07325 74.1395,-0.4605 41.05745,1.02735 82.3417,1.87865 122.92962,8.1546 16.3508,2.52825 23.8773,3.8799 36.3052,5.8746 15.4532,2.4803 22.3288,10.4665 30.0632,-9.33815 7.7343,-19.8047 20.3769,-48.0423 30.8203,-71.95315 7.1881,-16.45765 14.2146,-32.99405 21.914,-49.21875 z"
       id="path8" /><path
       style="display:inline;fill:#5f5f5d;fill-opacity:1;stroke:#5f5f5d;stroke-width:1.5;stroke-linecap:round;stroke-linejoin:round;stroke-dasharray:none;stroke-opacity:1;paint-order:markers stroke fill"
       d="m 1186.7403,566.2136 0.703,-57.1875 c 0,0 -13.9453,-7.73435 -30.9375,28.2422 -14.7213,31.16855 -23.6739,63.01285 -37.6172,97.96875 -6.8022,17.05315 -15.6039,36.73805 -21.0937,54.2578 -6.8897,21.98745 -14.7656,36.6797 -14.8828,83.90625 -0.129,51.9151 -2.8125,170.5078 -2.8125,170.5078 l 0.3015,17.34855 10.2454,1.753 -1.4062,179.53125 c -0.1155,14.7443 4.2414,39.9391 23.6719,73.5937 13.5335,23.4408 18.4886,27.1496 25.547,39.3751 2.8491,4.9348 25.1588,20.6266 26.0156,-22.5 0.703,-35.3906 0.8811,-96.2529 1.6406,-144.375 0.6104,-38.675 2.3438,-116.0156 2.3438,-116.0156 h 3.9843 l 0.7032,-250.07815 0.2345,-145.07815 z"
       id="path9" /><path
       style="display:inline;fill:#e8eae9;fill-opacity:1;stroke:#e8eae9;stroke-width:1.5;stroke-linecap:butt;stroke-linejoin:round;stroke-miterlimit:10;stroke-dasharray:none;stroke-opacity:1;paint-order:stroke fill markers"
       d="m 1162.3245,583.8927 -13.2583,6.8501 -24.9697,66.2913 -24.7487,62.0928 c 0,0 -7.513,15.46795 -7.0711,63.41865 0.442,47.95065 0,154.01675 0,154.01675 h 69.6058 V 792.71015 Z"
       id="path10" /><path
       style="display:inline;fill:#e8eae9;fill-opacity:1;stroke:#e8eae9;stroke-width:1.5;stroke-linecap:butt;stroke-linejoin:round;stroke-miterlimit:10;stroke-dasharray:none;stroke-opacity:1;paint-order:stroke fill markers"
       d="m 1161.8826,973.0225 -65.1865,-5.30335 -0.8839,173.24105 c -0.4845,9.0959 3.0936,47.9507 30.273,87.0626 26.8337,38.6145 33.1456,26.5164 33.3666,-1.3258 0.205,-25.8537 2.4307,-253.6745 2.4307,-253.6745 z"
       id="path11" /><path
       style="display:inline;fill:#5f5f5d;fill-opacity:1;stroke:#5f5f5d;stroke-width:1.5;stroke-linecap:round;stroke-linejoin:round;stroke-dasharray:none;stroke-opacity:1;paint-order:markers stroke fill"
       d="m 557.85608,566.2136 -0.70305,-57.1875 c 0,0 13.94535,-7.73435 30.9375,28.2422 14.72135,31.16855 23.67395,63.01285 37.6172,97.96875 6.8022,17.05315 15.60395,36.73805 21.09375,54.2578 6.88975,21.98745 14.7656,36.6797 14.8828,83.90625 0.129,51.9151 2.8125,170.5078 2.8125,170.5078 l -0.3015,17.34855 -10.24545,1.753 1.40625,179.53125 c 0.1155,14.7443 -4.2414,39.9391 -23.67185,73.5937 -13.5336,23.4408 -18.4887,27.1496 -25.54705,39.3751 -2.8491,4.9348 -25.1588,20.6266 -26.0156,-22.5 -0.70305,-35.3906 -0.8811,-96.2529 -1.64065,-144.375 -0.61035,-38.675 -2.34375,-116.0156 -2.34375,-116.0156 h -3.98435 l -0.70305,-250.07815 -0.2345,-145.07815 z"
       id="path14" /><path
       style="display:inline;fill:#e8eae9;fill-opacity:1;stroke:#e8eae9;stroke-width:1.5;stroke-linecap:butt;stroke-linejoin:round;stroke-miterlimit:10;stroke-dasharray:none;stroke-opacity:1;paint-order:stroke fill markers"
       d="m 582.27188,583.8927 13.25825,6.8501 24.9697,66.2913 24.74875,62.0928 c 0,0 7.513,15.46795 7.07105,63.41865 -0.442,47.95065 0,154.01675 0,154.01675 h -69.6058 V 792.71015 Z"
       id="path15" /><path
       style="display:inline;fill:#e8eae9;fill-opacity:1;stroke:#e8eae9;stroke-width:1.5;stroke-linecap:butt;stroke-linejoin:round;stroke-miterlimit:10;stroke-dasharray:none;stroke-opacity:1;paint-order:stroke fill markers"
       d="m 582.71383,973.0225 65.1864,-5.30335 0.88395,173.24105 c 0.4845,9.0959 -3.0936,47.9507 -30.273,87.0626 -26.83375,38.6145 -33.14565,26.5164 -33.3666,-1.3258 -0.205,-25.8537 -2.4307,-253.6745 -2.4307,-253.6745 z"
       id="path16" /><path
       style="display:inline;fill:#5f5f5d;fill-opacity:1;stroke:#5f5f5d;stroke-width:1.5;stroke-linejoin:round;stroke-miterlimit:10;stroke-opacity:1;paint-order:stroke fill markers"
       d="m 1081.4492,1284.8124 c -3.5048,-8.7106 -6.5187,-18.0092 -33.4771,-17.7883 -38.4534,0.315 -109.82257,0.7734 -109.82257,0.7734 0,0 -85.1505,1.4159 -127.83165,0.8838 -41.1805,-0.513 -63.8638,-1.5154 -94.46505,-2.5411 -28.8902,-0.9684 -42.5864,0.105 -49.4628,15.5026 -7.01905,15.7177 -13.9943,38.493 -23.45755,61.9477 -7.9694,19.7521 -13.6254,38.0778 -21.2132,59.8831 -2.6374,7.579 -8.89575,35.2036 20.4934,40.0651 29.3891,4.8614 69.25115,12.8993 105.79145,16.9455 34.16085,3.7826 81.53825,5.0822 104.96115,4.4192 23.4229,-0.663 78.2616,0.297 115.56775,-2.2097 36.79007,-2.4718 109.93037,-13.8204 124.18567,-16.3518 20.6399,-3.6649 39.1478,-14.3316 33.447,-29.9337 -4.5729,-12.515 -11.7274,-37.2206 -17.2768,-54.6131 -8.6067,-26.9747 -22.4168,-64.499 -27.4397,-76.9828 z"
       id="path17" /><path
       style="display:inline;fill:#e8eae9;fill-opacity:1;stroke:#e8eae9;stroke-width:1.5;stroke-linejoin:round;stroke-miterlimit:10;stroke-opacity:1;paint-order:stroke fill markers"
       d="m 696.58263,1277.5225 c 0,0 -11.9634,-1.7509 -18.84725,13.035 -11.29275,24.256 -22.1997,53.381 -33.34105,84.1539 -9.9486,27.4786 -14.68875,51.1465 0.2015,56.6157 10.8278,3.9771 32.90655,7.5876 49.5495,10.3746 32.6016,5.4592 65.42225,9.9654 98.38755,12.4058 35.5742,2.6335 71.3229,3.0793 106.9878,2.3927 29.7351,-0.5722 59.45765,-2.5279 89.05665,-5.4262 26.68237,-2.6127 53.77177,-3.9741 79.70497,-10.7741 15.5838,-4.0862 41.3267,-7.0444 44.9107,-17.8606 3.2111,-9.6907 -4.7051,-24.1551 -9.1245,-37.6344 -4.4194,-13.4793 -20.7335,-58.2471 -30.0252,-88.1249 -2.3421,-7.5311 -6.0535,-18.4321 -19.3317,-18.9388 -16.7947,-0.6405 -36.5024,-0.3235 -54.75292,-0.181 -35.60645,0.2775 -71.19625,1.897 -106.8036,2.0181 -42.94275,0.146 -85.8786,-1.14 -128.8195,-1.5576 -22.5839,-0.2195 -67.75305,-0.499 -67.75305,-0.499 z"
       id="path18" /><path
       style="display:inline;fill:#5f5f5d;fill-opacity:1;stroke:#5f5f5d;stroke-width:1.5;stroke-linejoin:round;stroke-miterlimit:10;stroke-dasharray:none;stroke-dashoffset:1;stroke-opacity:1;paint-order:stroke fill markers"
       d="m 1165.0043,1401.6322 15.625,-10.3124 c 0,0 -0.3125,23.125 -1.25,29.2188 -0.9375,6.0938 -3.7255,19.3895 -8.125,28.0859 -3.7433,7.3992 -8.7228,14.2926 -15.1562,19.7266 -6.3056,5.3261 -13.6679,9.4607 -21.2891,12.6171 -13.0625,5.4104 -31.8092,9.1937 -41.0937,10.5078 -8.6935,1.23 -25.4828,3.9183 -31.6016,4.6485 -5.3046,0.633 -56.7969,6.6015 -60.8594,6.7578 -4.06247,0.156 -79.76557,7.6175 -88.35937,7.6953 -5.4774,0.045 -27.10935,0.8985 -36.9531,0.7425 -9.84375,-0.156 -65.2601,-2.4574 -74.9219,-3.2812 -10.24015,-0.873 -41.7687,-3.3737 -62.5781,-5.7813 -33.03965,-3.8225 -65.65485,-7.7946 -98.82815,-13.7501 -12.89935,-2.3157 -26.48435,-3.9061 -37.5781,-11.5624 -9.2385,-6.3759 -16.1719,-13.5156 -22.1094,-23.3594 -4.4394,-7.3599 -7.8906,-20.4687 -9.53125,-27.2656 -1.37415,-5.6931 -2.65625,-18.1558 -3.15735,-25.0821 -0.169,-2.3376 -0.5925,-12.2617 -0.5925,-12.2617 l 13.64345,11.5626 c 0,0 -0.5583,17.9749 1.8877,26.4788 3.2923,11.4461 8.2361,23.2491 16.78345,31.5434 8.4086,8.1597 20.40045,11.8585 31.5135,15.5715 15.3016,5.1124 31.6069,6.5772 47.5647,8.9487 25.8914,3.8479 51.9901,6.2031 78.06035,8.5512 24.28525,2.1874 48.5968,4.4035 72.96875,5.1564 23.68755,0.732 47.40495,0.06 71.09375,-0.624 28.4602,-0.828 56.90225,-2.3409 85.3125,-4.2188 15.74857,-1.041 31.52937,-1.9252 47.18747,-3.9063 21.8313,-2.7622 43.7927,-5.5138 65.0742,-11.1111 16.3545,-4.3014 34.6825,-6.4219 47.7383,-17.1699 7.4478,-6.1312 11.5057,-15.7929 14.8438,-24.8437 3.0161,-8.1782 3.4626,-17.1126 4.375,-25.7814 0.262,-2.4884 0.3125,-7.5 0.3125,-7.5 z"
       id="path20" /><path
       style="display:inline;fill:#ff0000;fill-opacity:1;stroke:#ff0000;stroke-width:1.5;stroke-linejoin:round;stroke-miterlimit:10;stroke-dasharray:none;stroke-dashoffset:1;stroke-opacity:1;paint-order:stroke fill markers"
       d="m 1164.223,1401.3979 -10.9375,2.8125 c 0,0 1.4331,15.03 -1.6406,25.6251 -2.4146,8.323 -8.1542,18.7866 -14.0337,23.1289 -5.8795,4.3425 -16.7425,9.1263 -25.0288,10.7774 -10.6614,2.1243 -13.7099,2.9077 -24.0625,4.8436 -3.8289,0.7155 -7.6563,3.5157 -8.8281,7.6563 -1.172,4.1406 -1.0938,4.1406 -1.0938,4.1406 0,0 12.5863,-2.5584 18.8281,-4.0626 10.716,-2.5824 21.9149,-3.9616 31.9531,-8.5155 7.9127,-3.5896 16.1165,-7.8244 21.6406,-14.5312 6.1437,-7.4592 8.9717,-17.3277 11.25,-26.7188 1.983,-8.1736 1.9531,-25.1563 1.9531,-25.1563 z"
       id="path21" /><path
       style="display:inline;fill:#ff0000;fill-opacity:1;stroke:#ff0000;stroke-width:1.5;stroke-linejoin:round;stroke-miterlimit:10;stroke-dasharray:none;stroke-dashoffset:1;stroke-opacity:1;paint-order:stroke fill markers"
       d="m 581.60843,1401.3979 10.9375,2.8125 c 0,0 -1.4331,15.03 1.64065,25.6251 2.4146,8.323 8.1542,18.7866 14.0337,23.1289 5.87945,4.3425 16.74245,9.1263 25.0288,10.7774 10.6614,2.1243 13.7099,2.9077 24.0625,4.8436 3.82885,0.7155 7.65625,3.5157 8.8281,7.6563 1.17195,4.1406 1.0938,4.1406 1.0938,4.1406 0,0 -12.5863,-2.5584 -18.8281,-4.0626 -10.716,-2.5824 -21.91495,-3.9616 -31.9531,-8.5155 -7.91275,-3.5896 -16.11655,-7.8244 -21.64065,-14.5312 -6.1437,-7.4592 -8.9717,-17.3277 -11.25,-26.7188 -1.9829,-8.1736 -1.9531,-25.1563 -1.9531,-25.1563 z"
       id="path22" /><path
       style="fill:#4e4f4d;fill-opacity:1;stroke:#4e4f4d;stroke-width:5;stroke-linecap:square;stroke-linejoin:round;stroke-miterlimit:10;stroke-dasharray:none;stroke-dashoffset:1;stroke-opacity:1;paint-order:stroke fill markers"
       d="m 1174.8678,547.83275 c 5.3033,1.98875 9.3918,2.4722 15.9099,6.6291 8.1936,5.22545 14.4736,1.10485 14.4736,1.10485 0,0 10.4961,7.18155 15.1365,11.60095 4.6404,4.41945 27.4004,23.53345 27.8423,37.67555 0.442,14.14215 -15.2469,5.5243 -29.831,-1.10485 -14.5841,-6.6291 -25.1907,-15.57845 -31.5989,-20.5503 -5.3441,-4.1463 -20.5502,-17.67765 -20.5502,-17.67765 0,0 4.0239,-19.4004 8.6178,-17.67765 z"
       id="path35" /><path
       style="fill:#4e4f4d;fill-opacity:1;stroke:#4e4f4d;stroke-width:5;stroke-linecap:square;stroke-linejoin:round;stroke-miterlimit:10;stroke-dasharray:none;stroke-dashoffset:1;stroke-opacity:1;paint-order:stroke fill markers"
       d="m 584.48823,565.5104 c 0,0 -15.20615,13.53135 -20.5503,17.67765 -6.40815,4.97185 -17.01475,13.9212 -31.5988,20.5503 -14.5841,6.62915 -30.273,15.247 -29.8311,1.10485 0.442,-14.1421 23.20195,-33.2561 27.84235,-37.67555 4.6404,-4.4194 15.1365,-11.60095 15.1365,-11.60095 0,0 6.28005,4.1206 14.4736,-1.10485 6.51805,-4.1569 10.6066,-4.64035 15.9099,-6.6291 4.59395,-1.72275 8.61785,17.67765 8.61785,17.67765 z"
       id="path36" /></g></svg>
